HIERARCHY
ROOT Hips
{
	OFFSET 0.000000 0.000000 0.000000
	CHANNELS 6 Xposition Yposition Zposition Xrotation Yrotation Zrotation
	JOINT LeftUpLeg_virtual
	{
		OFFSET 0.000000 0.000000 0.000000
		CHANNELS 3 Xrotation Yrotation Zrotation
		JOINT LeftUpLeg
		{
			OFFSET 15.427100 -6.655098 0.678600
			CHANNELS 3 Xrotation Yrotation Zrotation
			JOINT LeftLeg
			{
				OFFSET 4.081073 -39.591068 13.024000
				CHANNELS 3 Xrotation Yrotation Zrotation
				JOINT LeftFoot
				{
					OFFSET -4.081074 -37.707932 -15.979700
					CHANNELS 3 Xrotation Yrotation Zrotation
					JOINT LeftToeBase
					{
						OFFSET 5.346399 -15.068900 20.645000
						CHANNELS 3 Xrotation Yrotation Zrotation
						JOINT LeftToe_End
						{
							OFFSET 2.754700 0.931300 11.300900
							CHANNELS 3 Xrotation Yrotation Zrotation
							End Site
							{
								OFFSET 0 0 0
							}
						}
					}
				}
			}
		}
	}
	JOINT RightUpLeg_virtual
	{
		OFFSET 0.000000 0.000000 0.000000
		CHANNELS 3 Xrotation Yrotation Zrotation
		JOINT RightUpLeg
		{
			OFFSET -15.569500 -6.655098 0.678600
			CHANNELS 3 Xrotation Yrotation Zrotation
			JOINT RightLeg
			{
				OFFSET -4.081825 -39.591045 13.023800
				CHANNELS 3 Xrotation Yrotation Zrotation
				JOINT RightFoot
				{
					OFFSET 4.081824 -37.707954 -15.979600
					CHANNELS 3 Xrotation Yrotation Zrotation
					JOINT RightToeBase
					{
						OFFSET -5.346400 -15.068900 20.645000
						CHANNELS 3 Xrotation Yrotation Zrotation
						JOINT RightToe_End
						{
							OFFSET -2.754700 0.931300 11.300900
							CHANNELS 3 Xrotation Yrotation Zrotation
							End Site
							{
								OFFSET 0 0 0
							}
						}
					}
				}
			}
		}
	}
	JOINT Spine_virtual
	{
		OFFSET 0.000000 0.000000 0.000000
		CHANNELS 3 Xrotation Yrotation Zrotation
		JOINT Spine
		{
			OFFSET -0.279200 12.230698 -2.892100
			CHANNELS 3 Xrotation Yrotation Zrotation
			JOINT Spine1
			{
				OFFSET -0.232667 10.192268 -1.242267
				CHANNELS 3 Xrotation Yrotation Zrotation
				JOINT Spine1_split
				{
					OFFSET -0.232667 10.192268 -1.242267
					CHANNELS 3 Xrotation Yrotation Zrotation
					JOINT Spine2
					{
						OFFSET -0.232667 10.192268 -1.242267
						CHANNELS 3 Xrotation Yrotation Zrotation
						JOINT Neck_virtual
						{
							OFFSET 0.000000 0.000000 0.000000
							CHANNELS 3 Xrotation Yrotation Zrotation
							JOINT Neck
							{
								OFFSET -0.418800 17.814194 8.416900
								CHANNELS 3 Xrotation Yrotation Zrotation
								JOINT Head
								{
									OFFSET 0.000000 7.031097 3.806800
									CHANNELS 3 Xrotation Yrotation Zrotation
									JOINT HeadTop_End
									{
										OFFSET 0.000000 24.646606 12.978600
										CHANNELS 3 Xrotation Yrotation Zrotation
										End Site
										{
											OFFSET 0 0 0
										}
									}
								}
							}
						}
						JOINT LeftShoulder_virtual
						{
							OFFSET 0.000000 0.000000 0.000000
							CHANNELS 3 Xrotation Yrotation Zrotation
							JOINT LeftShoulder
							{
								OFFSET 8.476499 7.247704 -3.868750
								CHANNELS 3 Xrotation Yrotation Zrotation
								JOINT LeftShoulder_split
								{
									OFFSET 8.476499 7.247704 -3.868750
									CHANNELS 3 Xrotation Yrotation Zrotation
									JOINT LeftArm
									{
										OFFSET 9.308998 -2.777710 0.208600
										CHANNELS 3 Xrotation Yrotation Zrotation
										JOINT LeftForeArm
										{
											OFFSET 29.972298 0.000000 0.000000
											CHANNELS 3 Xrotation Yrotation Zrotation
											JOINT LeftHand
											{
												OFFSET 26.026505 0.000000 0.000000
												CHANNELS 3 Xrotation Yrotation Zrotation
												End Site
												{
													OFFSET 0 0 0
												}
											}
										}
									}
								}
							}
						}
						JOINT RightShoulder_virtual
						{
							OFFSET 0.000000 0.000000 0.000000
							CHANNELS 3 Xrotation Yrotation Zrotation
							JOINT RightShoulder
							{
								OFFSET -7.570500 7.247704 -3.868750
								CHANNELS 3 Xrotation Yrotation Zrotation
								JOINT RightShoulder_split
								{
									OFFSET -7.570500 7.247704 -3.868750
									CHANNELS 3 Xrotation Yrotation Zrotation
									JOINT RightArm
									{
										OFFSET -9.308998 -2.777710 0.208500
										CHANNELS 3 Xrotation Yrotation Zrotation
										JOINT RightForeArm
										{
											OFFSET -29.972300 0.000000 0.000000
											CHANNELS 3 Xrotation Yrotation Zrotation
											JOINT RightHand
											{
												OFFSET -26.026505 0.000000 0.000000
												CHANNELS 3 Xrotation Yrotation Zrotation
												End Site
												{
													OFFSET 0 0 0
												}
											}
										}
									}
								}
							}
						}
					}
				}
			}
		}
	}
}
MOTION
Frames: 11
Frame Time: 0.03333333
-0.160284 89.023827 -2.162493 0.000000 0.000000 0.000000 -1.595957 -1.220658 -1.013764 -12.042136 2.516054 11.840780 26.976677 2.928114 1.202874 -12.177699 3.431454 -11.748845 1.306479 0.065671 -0.504582 0.000000 0.000000 0.000000 -1.489222 -1.097461 -0.918788 -15.008236 1.687367 -6.996231 30.077278 -0.558679 -0.638468 -10.886328 -0.809538 8.407031 3.325049 0.462331 1.300012 0.000000 0.000000 0.000000 -1.592503 -2.035532 -1.139168 1.368348 -0.773210 -0.012832 -1.685268 -0.246013 0.649643 0.884377 0.351290 0.001426 0.000000 0.000000 0.000000 -2.011547 -0.110235 0.715717 -0.941182 -0.285293 -0.672026 5.103880 -1.891489 2.414376 0.000000 0.000000 0.000000 -2.314233 -0.021912 0.408336 1.172406 -11.009450 -9.863785 -3.062490 0.618260 -1.709066 21.152215 -21.759876 -65.084142 -1.113295 -17.662646 1.298223 0.000000 0.000000 0.000000 -1.745367 -0.023066 0.738234 1.670953 5.826802 10.713550 -1.835700 2.205362 -1.634776 6.165926 24.133587 65.966834 0.506091 15.913702 0.684427 0.000000 0.000000 0.000000 
-0.054980 89.142120 -2.132444 0.000000 0.000000 0.000000 -1.590680 -1.221492 -0.995146 -12.053248 2.379170 11.781322 26.800771 3.051925 1.165610 -12.071535 3.450208 -11.513388 1.212151 0.093464 -0.490661 0.000000 0.000000 0.000000 -1.470214 -1.147709 -0.917946 -14.693024 1.784230 -6.992392 29.916406 -0.630549 -0.767842 -10.831542 -0.949128 7.926268 3.120517 0.424839 1.431659 0.000000 0.000000 0.000000 -1.522846 -2.109724 -1.214559 1.220460 -0.736445 0.053248 -1.631458 -0.240864 0.640007 0.965044 0.464032 0.059439 0.000000 0.000000 0.000000 -2.015807 -0.113072 0.712292 -0.936764 -0.248244 -0.683922 5.045605 -1.937804 2.363357 0.000000 0.000000 0.000000 -2.286856 -0.006247 0.410104 1.171929 -11.060544 -9.987468 -3.120405 0.690964 -1.705808 21.132947 -21.859366 -65.122452 -1.108403 -17.721290 1.152443 0.000000 0.000000 0.000000 -1.710233 -0.016792 0.726893 1.698758 5.989306 10.770589 -1.764862 2.391566 -1.650224 6.321823 24.197663 65.823967 0.556620 15.811634 0.696213 0.000000 0.000000 0.000000 
0.030986 89.257874 -2.096153 0.000000 0.000000 0.000000 -1.637879 -1.299739 -1.004264 -12.053410 2.257188 11.677491 26.591634 3.321848 1.260540 -11.873457 3.328768 -11.261620 1.194909 0.135942 -0.433511 0.000000 0.000000 0.000000 -1.454570 -1.139066 -0.984993 -14.325888 1.879241 -6.948390 29.874879 -0.707430 -1.003353 -11.304894 -1.052252 7.238504 2.975497 0.433622 1.404709 0.000000 0.000000 0.000000 -1.449816 -2.233772 -1.337985 1.180038 -0.666523 0.193623 -1.536893 -0.225555 0.613047 1.016187 0.472555 0.056313 0.000000 0.000000 0.000000 -1.993115 -0.111058 0.688883 -0.948720 -0.182936 -0.756405 4.803540 -2.019469 2.384995 0.000000 0.000000 0.000000 -2.223415 0.011151 0.390664 1.159335 -11.178509 -10.166293 -3.203540 0.914525 -1.679160 21.043581 -21.861412 -65.137581 -1.022192 -17.905425 1.026835 0.000000 0.000000 0.000000 -1.646225 -0.010438 0.686438 1.755746 6.165497 10.818877 -1.629881 2.555520 -1.675041 6.603712 24.464232 65.427577 0.625536 15.892795 0.693667 0.000000 0.000000 0.000000 
0.119603 89.285332 -2.098558 0.000000 0.000000 0.000000 -1.702810 -1.471946 -1.020072 -12.016808 2.202212 11.490309 26.454491 3.718915 1.481247 -11.726400 3.136904 -11.032104 1.197438 0.190500 -0.334359 0.000000 0.000000 0.000000 -1.415356 -1.121974 -1.046025 -14.148340 1.912710 -6.969835 30.006107 -0.744324 -1.176047 -11.876371 -1.128722 6.596452 2.768647 0.463776 1.233117 0.000000 0.000000 0.000000 -1.378397 -2.426148 -1.434959 1.252376 -0.584141 0.351335 -1.398793 -0.195537 0.574279 0.987351 0.444660 -0.008853 0.000000 0.000000 0.000000 -1.924415 -0.098574 0.654992 -0.985449 -0.102385 -0.860099 4.374321 -2.135501 2.504521 0.000000 0.000000 0.000000 -2.122079 0.034209 0.358207 1.127825 -11.341549 -10.358489 -3.338346 1.158651 -1.622396 20.929663 -21.855675 -65.020935 -0.890796 -18.161695 0.897505 0.000000 0.000000 0.000000 -1.555434 0.000032 0.623518 1.836056 6.340729 10.827213 -1.440930 2.657123 -1.675809 6.913803 24.908175 64.827402 0.694604 16.132878 0.687057 0.000000 0.000000 0.000000 
0.250713 89.243477 -2.159628 0.000000 0.000000 0.000000 -1.711631 -1.740794 -1.025940 -12.055732 2.231259 11.212327 26.491985 4.230818 1.781049 -11.740336 2.944163 -10.866795 1.157306 0.241585 -0.194111 0.000000 0.000000 0.000000 -1.328473 -1.188132 -1.078878 -14.285217 1.836861 -7.073151 30.020901 -0.617557 -1.230858 -12.093707 -1.188487 6.431057 2.023059 0.470983 0.926460 0.000000 0.000000 0.000000 -1.281018 -2.667553 -1.501797 1.425040 -0.511809 0.464087 -1.211142 -0.156081 0.529878 0.905934 0.390922 -0.049175 0.000000 0.000000 0.000000 -1.792277 -0.070925 0.618084 -1.046664 -0.030756 -0.945528 3.749719 -2.271123 2.759352 0.000000 0.000000 0.000000 -1.972156 0.069009 0.325993 1.075594 -11.551623 -10.514403 -3.414053 1.293921 -1.735757 20.786836 -21.931051 -64.731643 -0.746097 -18.513776 0.754613 0.000000 0.000000 0.000000 -1.432856 0.017912 0.555092 1.931019 6.527483 10.798463 -1.241822 2.685706 -1.690358 7.148660 25.501689 64.122219 0.734532 16.469439 0.676827 0.000000 0.000000 0.000000 
0.397052 89.155144 -2.250071 0.000000 0.000000 0.000000 -1.610438 -2.068503 -1.036075 -12.280716 2.319058 10.927850 26.787952 4.801759 2.099862 -11.931219 2.792640 -10.856001 1.006507 0.266474 -0.008584 0.000000 0.000000 0.000000 -1.156041 -1.393781 -1.108699 -14.764048 1.694872 -7.142266 29.710514 -0.349089 -1.187211 -11.880990 -1.273891 6.776522 0.991878 0.440682 0.585926 0.000000 0.000000 0.000000 -1.134261 -2.974987 -1.610166 1.663008 -0.466811 0.497156 -0.984208 -0.109949 0.478777 0.860046 0.321713 -0.002166 0.000000 0.000000 0.000000 -1.579515 -0.025805 0.577350 -1.125569 0.013768 -0.972062 2.936297 -2.449510 3.173918 0.000000 0.000000 0.000000 -1.777521 0.117124 0.298200 1.004218 -11.832095 -10.594283 -3.340711 1.294049 -1.967973 20.571136 -22.054479 -64.281560 -0.619457 -18.934973 0.598442 0.000000 0.000000 0.000000 -1.267631 0.047550 0.488261 2.025454 6.772885 10.733964 -1.048399 2.679853 -1.695874 7.234280 26.231161 63.413758 0.735250 16.814211 0.668758 0.000000 0.000000 0.000000 
0.523441 89.079384 -2.444206 0.000000 0.000000 0.000000 -1.383797 -2.527842 -1.124542 -12.718784 2.401647 10.774057 27.400977 5.423664 2.411184 -12.275563 2.786289 -11.051294 0.800166 0.249154 0.197155 0.000000 0.000000 0.000000 -0.878655 -1.786253 -1.202019 -15.516467 1.507418 -7.045129 29.070054 -0.078536 -1.087394 -11.324786 -1.426183 7.202643 0.278816 0.387148 0.377581 0.000000 0.000000 0.000000 -0.894244 -3.368705 -1.805517 1.936761 -0.437615 0.429867 -0.714118 -0.059138 0.418397 0.874787 0.334921 0.066729 0.000000 0.000000 0.000000 -1.280720 0.032279 0.522218 -1.212421 0.009109 -0.903303 1.971414 -2.698790 3.785370 0.000000 0.000000 0.000000 -1.532305 0.171769 0.262516 0.923794 -12.215665 -10.573044 -3.077799 1.167922 -2.162497 20.110730 -22.092793 -63.754420 -0.493513 -19.377846 0.461465 0.000000 0.000000 0.000000 -1.050038 0.088145 0.423533 2.113994 7.109500 10.665771 -0.902135 2.608062 -1.667075 7.142003 27.095564 62.784424 0.700140 17.109059 0.650745 0.000000 0.000000 0.000000 
0.627809 89.061562 -2.795942 0.000000 0.000000 0.000000 -1.025497 -3.110757 -1.367472 -13.395373 2.373862 10.896508 28.341148 6.076077 2.650364 -12.821839 3.011027 -11.464373 0.589359 0.195926 0.408967 0.000000 0.000000 0.000000 -0.522876 -2.412685 -1.458227 -16.527045 1.348658 -6.630703 28.226850 0.093464 -1.003801 -10.674652 -1.645440 7.481152 0.297497 0.318591 0.410787 0.000000 0.000000 0.000000 -0.538312 -3.940870 -2.157415 2.250027 -0.405903 0.277615 -0.402968 -0.012445 0.343100 0.934377 0.366476 0.101269 0.000000 0.000000 0.000000 -0.911982 0.096904 0.431967 -1.275843 -0.050370 -0.707292 0.895669 -3.032398 4.600294 0.000000 0.000000 0.000000 -1.225235 0.229995 0.197102 0.851146 -12.730367 -10.456517 -2.748475 1.073701 -2.305442 19.271961 -21.815904 -63.252900 -0.380819 -19.845745 0.356181 0.000000 0.000000 0.000000 -0.768090 0.138188 0.347188 2.191189 7.564671 10.606021 -0.814571 2.547190 -1.641220 6.883137 28.091757 62.254046 0.633245 17.450042 0.627246 0.000000 0.000000 0.000000 
0.691941 89.001434 -3.211365 0.000000 0.000000 0.000000 -0.574946 -3.915703 -1.855154 -14.250160 2.141045 11.438982 29.693455 6.669797 2.768295 -13.592239 3.500318 -12.142046 0.377640 0.117121 0.614186 0.000000 0.000000 0.000000 -0.109813 -3.315687 -1.959624 -17.844113 1.324364 -5.792219 27.687896 0.192678 -0.929838 -10.009784 -1.789184 7.613709 0.810315 0.255099 0.666260 0.000000 0.000000 0.000000 -0.088172 -4.776516 -2.682841 2.611770 -0.357838 0.084139 -0.055385 0.033817 0.241452 0.985204 0.334564 0.140081 0.000000 0.000000 0.000000 -0.502139 0.161670 0.290128 -1.293090 -0.158645 -0.383221 -0.221121 -3.431399 5.593731 0.000000 0.000000 0.000000 -0.858953 0.282954 0.079594 0.796802 -13.366584 -10.290920 -2.508141 1.098661 -2.404265 18.161369 -21.124966 -62.801868 -0.287720 -20.476803 0.278958 0.000000 0.000000 0.000000 -0.421782 0.192706 0.233204 2.260005 8.161513 10.559327 -0.774922 2.505111 -1.643577 6.477966 29.162469 61.744241 0.555213 17.970303 0.608052 0.000000 0.000000 0.000000 
0.681519 88.796021 -3.634619 0.000000 0.000000 0.000000 -0.072962 -4.990026 -2.604906 -15.171962 1.715894 12.426027 31.578799 7.169668 2.708439 -14.720625 4.287257 -12.959284 0.260131 0.029236 0.763010 0.000000 0.000000 0.000000 0.300320 -4.543830 -2.716654 -19.505601 1.474158 -4.575917 27.855764 0.311905 -0.902422 -9.287043 -1.666093 7.893656 1.064471 0.202832 0.960071 0.000000 0.000000 0.000000 0.404178 -5.934822 -3.380418 3.038917 -0.299298 -0.105469 0.322874 0.076276 0.096008 0.976517 0.257292 0.142989 0.000000 0.000000 0.000000 -0.086089 0.221555 0.095072 -1.235592 -0.283819 0.035039 -1.286404 -3.854039 6.712293 0.000000 0.000000 0.000000 -0.459339 0.326286 -0.095444 0.757727 -14.069729 -10.116429 -2.373493 1.117074 -2.431306 17.046288 -20.022956 -62.418421 -0.211610 -21.599939 0.237098 0.000000 0.000000 0.000000 -0.034378 0.239469 0.069432 2.324058 8.879181 10.533767 -0.727410 2.478397 -1.722659 5.904032 30.180458 61.203529 0.485798 18.757465 0.592168 0.000000 0.000000 0.000000 
0.546090 88.290443 -3.991663 0.000000 0.000000 0.000000 0.423886 -6.308576 -3.565422 -16.099111 1.129536 13.834434 34.098326 7.547625 2.426871 -16.311262 5.355270 -13.738220 0.220866 -0.046628 0.821955 0.000000 0.000000 0.000000 0.679450 -6.052773 -3.692165 -21.565007 1.784255 -3.173534 28.980363 0.586978 -0.827510 -8.465239 -1.108360 8.816506 0.419291 0.163886 1.071823 0.000000 0.000000 0.000000 0.830031 -7.366486 -4.222484 3.546093 -0.248681 -0.252711 0.728681 0.108747 -0.088592 0.907063 0.159009 0.102256 0.000000 0.000000 0.000000 0.308716 0.268994 -0.138121 -1.070174 -0.384175 0.496727 -2.179865 -4.225287 7.842297 0.000000 0.000000 0.000000 -0.048998 0.352924 -0.308772 0.726997 -14.773716 -9.987955 -2.294179 1.013533 -2.363212 16.260363 -18.633868 -62.036443 -0.171004 -23.555663 0.208427 0.000000 0.000000 0.000000 0.362321 0.271703 -0.140602 2.386295 9.676946 10.510993 -0.633953 2.381961 -1.786380 5.141052 30.978405 60.581394 0.441973 19.922294 0.603306 0.000000 0.000000 0.000000 
